HIERARCHY
ROOT Pelvis
{
	OFFSET 0.000000 0.000000 0.000000
	CHANNELS 6 Xposition Yposition Zposition Xrotation Yrotation Zrotation
	JOINT LeftUpLeg_virtual
	{
		OFFSET 0.000000 0.000000 0.000000
		CHANNELS 3 Xrotation Yrotation Zrotation
		JOINT LeftUpLeg
		{
			OFFSET 18.735201 -5.666702 -4.541200
			CHANNELS 3 Xrotation Yrotation Zrotation
			JOINT LeftLeg
			{
				OFFSET -0.021200 -31.938179 0.493100
				CHANNELS 3 Xrotation Yrotation Zrotation
				JOINT LeftFoot
				{
					OFFSET 0.021200 -31.938179 -4.336299
					CHANNELS 3 Xrotation Yrotation Zrotation
					JOINT LeftToeBase
					{
						OFFSET 0.943001 -26.722000 15.023500
						CHANNELS 3 Xrotation Yrotation Zrotation
						End Site
						{
							OFFSET 0 0 0
						}
					}
				}
			}
		}
	}
	JOINT RightUpLeg_virtual
	{
		OFFSET 0.000000 0.000000 0.000000
		CHANNELS 3 Xrotation Yrotation Zrotation
		JOINT RightUpLeg
		{
			OFFSET -18.735201 -5.666702 -4.541200
			CHANNELS 3 Xrotation Yrotation Zrotation
			JOINT RightLeg
			{
				OFFSET 0.018946 -31.938133 0.493100
				CHANNELS 3 Xrotation Yrotation Zrotation
				JOINT RightFoot
				{
					OFFSET -0.018946 -31.938126 -4.336299
					CHANNELS 3 Xrotation Yrotation Zrotation
					JOINT RightToeBase
					{
						OFFSET -0.943001 -26.722004 15.023500
						CHANNELS 3 Xrotation Yrotation Zrotation
						End Site
						{
							OFFSET 0 0 0
						}
					}
				}
			}
		}
	}
	JOINT Hips_virtual
	{
		OFFSET 0.000000 0.000000 0.000000
		CHANNELS 3 Xrotation Yrotation Zrotation
		JOINT Hips
		{
			OFFSET -0.000000 -0.000000 -0.000000
			CHANNELS 3 Xrotation Yrotation Zrotation
			JOINT Spine
			{
				OFFSET 0.000000 10.199997 -0.299500
				CHANNELS 3 Xrotation Yrotation Zrotation
				JOINT Spine1
				{
					OFFSET 0.000000 11.900002 -1.516600
					CHANNELS 3 Xrotation Yrotation Zrotation
					JOINT Spine2
					{
						OFFSET 0.000000 13.600006 -2.842500
						CHANNELS 3 Xrotation Yrotation Zrotation
						JOINT Neck_virtual
						{
							OFFSET 0.000000 0.000000 0.000000
							CHANNELS 3 Xrotation Yrotation Zrotation
							JOINT Neck
							{
								OFFSET 0.000000 9.624100 -2.890100
								CHANNELS 3 Xrotation Yrotation Zrotation
								JOINT Head
								{
									OFFSET 0.000000 14.068802 -1.351900
									CHANNELS 3 Xrotation Yrotation Zrotation
									End Site
									{
										OFFSET 0 0 0
									}
								}
							}
						}
						JOINT LeftShoulder_virtual
						{
							OFFSET 0.000000 0.000000 0.000000
							CHANNELS 3 Xrotation Yrotation Zrotation
							JOINT LeftShoulder
							{
								OFFSET 15.263000 10.923401 -0.547700
								CHANNELS 3 Xrotation Yrotation Zrotation
								JOINT LeftArm
								{
									OFFSET 25.438599 -2.830597 -13.032500
									CHANNELS 3 Xrotation Yrotation Zrotation
									JOINT LeftForeArm
									{
										OFFSET 29.960503 0.000000 0.000000
										CHANNELS 3 Xrotation Yrotation Zrotation
										JOINT LeftHand
										{
											OFFSET 27.849251 0.000000 0.000000
											CHANNELS 3 Xrotation Yrotation Zrotation
											End Site
											{
												OFFSET 0 0 0
											}
										}
									}
								}
							}
						}
						JOINT RightShoulder_virtual
						{
							OFFSET 0.000000 0.000000 0.000000
							CHANNELS 3 Xrotation Yrotation Zrotation
							JOINT RightShoulder
							{
								OFFSET -15.263000 10.923401 -0.547700
								CHANNELS 3 Xrotation Yrotation Zrotation
								JOINT RightArm
								{
									OFFSET -25.438599 -2.830597 -13.032500
									CHANNELS 3 Xrotation Yrotation Zrotation
									JOINT RightForeArm
									{
										OFFSET -29.960503 0.000000 0.000000
										CHANNELS 3 Xrotation Yrotation Zrotation
										JOINT RightHand
										{
											OFFSET -27.849251 0.000000 0.000000
											CHANNELS 3 Xrotation Yrotation Zrotation
											End Site
											{
												OFFSET 0 0 0
											}
										}
									}
								}
							}
						}
					}
				}
			}
		}
	}
}
MOTION
Frames: 13
Frame Time: 0.03333333
-2.855293 83.851631 1.481628 0.000000 0.000000 0.000000 -4.407471 -61.167049 -3.110420 -36.915882 7.467394 35.679272 48.733137 -12.309578 -11.172513 -10.525114 -1.939254 -11.063131 0.000000 0.000000 0.000000 -4.407471 -61.167049 -3.110420 -31.624787 -5.073602 -26.478707 51.633051 4.350999 -7.587458 -19.430006 2.661428 24.766898 0.000000 0.000000 0.000000 -4.407471 -61.167049 -3.110420 0.000000 0.000000 0.000000 10.383634 0.364915 -1.897694 6.878514 0.467167 -5.014514 0.000000 0.000000 0.000000 7.081024 0.478344 -4.980956 -4.283306 5.529975 1.489011 0.000000 0.000000 0.000000 7.081024 0.478344 -4.980956 -6.144670 -10.983335 -2.376381 -23.005196 6.509128 -38.841913 2.187169 -48.212499 1.151327 0.000000 0.000000 0.000000 7.081024 0.478344 -4.980956 -5.489245 11.784434 2.128561 -41.675314 -25.058870 27.259936 -143.707781 73.987539 144.833724 0.000000 0.000000 0.000000 
-2.880646 83.883858 1.476467 0.000000 0.000000 0.000000 -4.049448 -61.092648 -2.265130 -36.406691 7.385217 34.611581 48.212379 -11.440878 -10.989289 -10.340727 -1.912314 -11.407148 0.000000 0.000000 0.000000 -4.049448 -61.092648 -2.265130 -32.031128 -4.850824 -27.102937 52.023085 4.529864 -7.606387 -19.634950 2.588409 24.753787 0.000000 0.000000 0.000000 -4.049448 -61.092648 -2.265130 0.000000 0.000001 0.000000 10.530331 0.393668 -1.697957 7.138506 0.481493 -4.840606 0.000000 0.000000 0.000000 7.341880 0.512811 -4.809181 -4.097633 5.484920 1.441777 0.000000 0.000000 0.000000 7.341880 0.512811 -4.809181 -6.367304 -10.788153 -3.787806 -21.873372 6.546973 -38.737425 3.298288 -47.813609 1.501505 0.000000 0.000000 0.000000 7.341880 0.512811 -4.809181 -5.546716 11.668541 2.442835 -42.804638 -24.538211 26.405984 -145.235804 72.152711 146.598618 0.000000 0.000000 0.000000 
-2.939913 83.952026 1.513561 0.000000 0.000000 0.000000 -3.683771 -60.611556 -1.503284 -35.929380 6.887300 33.370115 47.635423 -10.532447 -10.792508 -10.036863 -1.899046 -11.758866 0.000000 0.000000 0.000000 -3.683771 -60.611556 -1.503284 -32.136808 -5.102638 -27.781771 52.354503 5.879302 -7.555817 -19.909185 1.344153 24.237339 0.000000 0.000000 0.000000 -3.683771 -60.611556 -1.503284 0.000000 0.000000 0.000000 10.639622 0.384928 -1.577187 7.369347 0.453069 -4.726277 0.000000 0.000000 0.000000 7.573425 0.423515 -4.679433 -3.965856 5.468535 1.432835 0.000000 0.000000 0.000000 7.573425 0.423515 -4.679433 -6.440482 -10.884639 -4.337064 -21.175186 6.913551 -38.724963 5.577229 -47.056660 2.897907 0.000000 0.000000 0.000000 7.573425 0.423515 -4.679433 -5.599831 11.504896 2.762670 -43.512731 -24.472590 26.085461 -146.652768 70.755473 148.198904 0.000000 0.000000 0.000000 
-3.036338 83.997307 1.568844 0.000000 0.000000 0.000000 -3.095746 -60.179035 -0.677402 -35.702519 6.414653 32.415511 47.186297 -9.830509 -10.641608 -9.815604 -1.887221 -12.044382 0.000000 0.000000 0.000000 -3.095746 -60.179035 -0.677402 -32.289415 -5.365905 -28.344457 52.441236 5.943309 -7.559614 -20.180672 1.274540 24.261363 0.000000 0.000000 0.000000 -3.095746 -60.179035 -0.677402 0.000000 0.000001 0.000000 10.736035 0.359737 -1.550206 7.574213 0.410793 -4.672919 0.000000 0.000000 0.000000 7.783361 0.335832 -4.593511 -3.868941 5.458756 1.496454 0.000000 0.000000 0.000000 7.783361 0.335832 -4.593511 -6.409819 -11.054782 -4.315980 -20.815370 7.378777 -38.792541 6.651041 -46.078362 3.603166 0.000000 0.000000 0.000000 7.783361 0.335832 -4.593511 -5.654103 11.324945 3.104024 -43.920667 -24.514000 25.947622 -147.018101 69.549863 148.749007 0.000000 0.000000 0.000000 
-3.138198 84.005661 1.626343 0.000000 0.000000 0.000000 -2.501614 -59.846746 0.106320 -35.699859 6.246308 31.793588 46.838675 -9.523056 -10.554194 -9.650260 -1.890391 -12.166630 0.000000 0.000000 0.000000 -2.501614 -59.846746 0.106320 -32.446667 -5.441728 -28.755390 52.581440 5.887501 -7.571582 -20.454511 1.190620 24.344374 0.000000 0.000000 0.000000 -2.501614 -59.846746 0.106320 0.000000 0.000003 0.000000 10.828951 0.320637 -1.625208 7.754146 0.355950 -4.697670 0.000000 0.000000 0.000000 7.968542 0.252192 -4.586780 -3.803000 5.449802 1.581595 0.000000 0.000000 0.000000 7.968542 0.252192 -4.586780 -6.354625 -11.231520 -4.160275 -20.827581 7.923734 -38.605916 5.918337 -45.023057 3.098783 0.000000 0.000000 0.000000 7.968542 0.252192 -4.586780 -5.689676 11.157177 3.353857 -44.015870 -24.656600 26.139334 -146.756545 68.653360 148.647210 0.000000 0.000000 0.000000 
-3.242743 83.973106 1.687977 0.000000 0.000000 0.000000 -1.911275 -59.546873 0.869128 -35.876979 6.280355 31.382281 46.594352 -9.517601 -10.518776 -9.527683 -1.904965 -12.160913 0.000000 0.000000 0.000000 -1.911275 -59.546873 0.869128 -32.580965 -5.340934 -29.063172 52.811163 5.680990 -7.599551 -20.773180 1.076162 24.509290 0.000000 0.000000 0.000000 -1.911275 -59.546873 0.869128 0.000000 0.000001 0.000000 10.915105 0.273935 -1.766879 7.909831 0.295137 -4.773527 0.000000 0.000000 0.000000 8.126054 0.179314 -4.688609 -3.742132 5.435735 1.636942 0.000000 0.000000 0.000000 8.126054 0.179314 -4.688609 -6.300759 -11.387173 -3.996397 -21.083307 8.454842 -38.242823 4.250945 -43.934560 2.005376 0.000000 0.000000 0.000000 8.126054 0.179314 -4.688609 -5.685061 11.029829 3.381715 -43.742174 -25.064086 26.612072 -153.758063 69.431468 155.275185 0.000000 0.000000 0.000000 
-3.348218 83.902817 1.752781 0.000000 0.000000 0.000000 -1.324473 -59.279171 1.612459 -36.171063 6.409755 31.108725 46.467160 -9.682680 -10.521980 -9.463326 -1.921654 -12.085606 0.000000 0.000000 0.000000 -1.324473 -59.279171 1.612459 -32.730622 -5.130992 -29.311453 53.131785 5.407842 -7.637478 -21.129899 0.941981 24.714619 0.000000 0.000000 0.000000 -1.324473 -59.279171 1.612459 0.000000 0.000000 0.000000 10.992164 0.228966 -1.937666 8.042082 0.233153 -4.889071 0.000000 0.000000 0.000000 8.252690 0.118908 -4.831617 -3.698604 5.420197 1.669594 0.000000 0.000000 0.000000 8.252690 0.118908 -4.831617 -6.266417 -11.485142 -3.852818 -21.456042 8.939200 -37.849210 2.884052 -42.853648 1.181336 0.000000 0.000000 0.000000 8.252690 0.118908 -4.831617 -5.667845 10.941970 3.326000 -43.314758 -25.522267 27.193445 -147.600607 67.857082 149.604106 0.000000 0.000000 0.000000 
-3.452843 83.808823 1.819695 0.000000 0.000000 0.000000 -0.741103 -59.043454 2.337681 -36.555999 6.644937 30.955203 46.413239 -9.996084 -10.554480 -9.436256 -1.942262 -11.946803 0.000000 0.000000 0.000000 -0.741103 -59.043454 2.337681 -32.876344 -4.824714 -29.497162 53.498666 5.066896 -7.682814 -21.499721 0.793600 24.958321 0.000000 0.000000 0.000000 -0.741103 -59.043454 2.337681 0.000000 -0.000001 0.000000 11.057588 0.188004 -2.119821 8.152012 0.178552 -5.021091 0.000000 0.000000 0.000000 8.345744 0.075176 -4.996378 -3.652220 5.404769 1.676544 0.000000 0.000000 0.000000 8.345744 0.075176 -4.996378 -6.238696 -11.490493 -3.728944 -21.795892 9.244929 -37.516057 1.948493 -41.877095 0.622755 0.000000 0.000000 0.000000 8.345744 0.075176 -4.996378 -5.644717 10.868896 3.223353 -42.844431 -25.957739 27.852504 -155.800057 69.092916 157.276526 0.000000 0.000000 0.000000 
-3.554900 83.708855 1.887669 0.000000 0.000000 0.000000 -0.161176 -58.839518 3.045942 -36.962624 6.916590 30.856093 46.392373 -10.344294 -10.597019 -9.431748 -1.962111 -11.795853 0.000000 0.000000 0.000000 -0.161176 -58.839518 3.045942 -33.023989 -4.481513 -29.647638 53.861280 4.713187 -7.729366 -21.851476 0.644556 25.213797 0.000000 0.000000 0.000000 -0.161176 -58.839518 3.045942 0.000000 -0.000003 0.000000 11.108615 0.152166 -2.294788 8.240411 0.133288 -5.156647 0.000000 0.000000 0.000000 8.402535 0.050699 -5.163565 -3.621879 5.396123 1.656269 0.000000 0.000000 0.000000 8.402535 0.050699 -5.163565 -6.223807 -11.469084 -3.666960 -22.058723 9.420310 -37.265095 1.288725 -41.097644 0.271615 0.000000 0.000000 0.000000 8.402535 0.050699 -5.163565 -5.611993 10.808508 3.060298 -42.327379 -26.353411 28.525254 -160.122010 69.477012 161.343453 0.000000 0.000000 0.000000 
-3.652524 83.618118 1.955853 0.000000 0.000000 0.000000 0.416032 -58.667268 3.739036 -37.331324 7.162746 30.749518 46.369321 -10.632897 -10.631799 -9.439228 -1.976645 -11.669324 0.000000 0.000000 0.000000 0.416032 -58.667268 3.739036 -33.202765 -4.182420 -29.806560 54.186110 4.436334 -7.768182 -22.163136 0.513277 25.430640 0.000000 0.000000 0.000000 0.416032 -58.667268 3.739036 0.000000 0.000000 0.000000 11.143887 0.124615 -2.445386 8.308030 0.096143 -5.282147 0.000000 0.000000 0.000000 8.424112 0.037705 -5.314396 -3.621462 5.391119 1.617533 0.000000 0.000000 0.000000 8.424112 0.037705 -5.314396 -6.226721 -11.445660 -3.691864 -22.282678 9.525936 -37.067402 0.904014 -40.713033 0.116840 0.000000 0.000000 0.000000 8.424112 0.037705 -5.314396 -5.573348 10.759535 2.867980 -41.827153 -26.655974 29.143942 -154.854445 68.576178 156.446726 0.000000 0.000000 0.000000 
-3.744149 83.536697 2.023140 0.000000 0.000000 0.000000 0.987790 -58.526607 4.415846 -37.633430 7.326379 30.599780 46.353171 -10.793032 -10.652672 -9.468249 -1.982195 -11.595779 0.000000 0.000000 0.000000 0.987790 -58.526607 4.415846 -33.413559 -3.922748 -29.973445 54.474553 4.232540 -7.800173 -22.433167 0.400224 25.611012 0.000000 0.000000 0.000000 0.987790 -58.526607 4.415846 0.000000 0.000003 0.000000 11.166904 0.111108 -2.555162 8.357655 0.068147 -5.386218 0.000000 0.000000 0.000000 8.436865 0.031754 -5.430822 -3.643362 5.382578 1.579375 0.000000 0.000000 0.000000 8.436865 0.031754 -5.430822 -6.236890 -11.426205 -3.750932 -22.501625 9.590778 -36.908358 0.875907 -40.628192 0.196792 0.000000 0.000000 0.000000 8.436865 0.031754 -5.430822 -5.536941 10.721550 2.686773 -41.476419 -26.835325 29.588448 -154.991240 68.386204 156.604503 0.000000 0.000000 0.000000 
-3.806092 83.463547 2.087341 0.000000 0.000000 0.000000 1.473225 -58.422221 4.961963 -37.863041 7.322397 30.434278 46.423054 -10.794285 -10.666073 -9.542175 -1.976417 -11.582245 0.000000 0.000000 0.000000 1.473225 -58.422221 4.961963 -33.648080 -3.781177 -30.143759 54.701144 4.166811 -7.819763 -22.629737 0.323821 25.717657 0.000000 0.000000 0.000000 1.473225 -58.422221 4.961963 0.000000 -0.000002 0.000000 11.180526 0.102788 -2.622736 8.392778 0.054684 -5.465940 0.000000 0.000000 0.000000 8.439208 0.036084 -5.508927 -3.679081 5.370440 1.559120 0.000000 0.000000 0.000000 8.439208 0.036084 -5.508927 -6.248625 -11.418477 -3.821633 -22.698170 9.615244 -36.790350 0.888080 -40.856986 0.299591 0.000000 0.000000 0.000000 8.439208 0.036084 -5.508927 -5.510861 10.694140 2.557003 -41.293036 -26.835397 29.887378 -155.003562 68.319131 156.626032 0.000000 0.000000 0.000000 
-3.846195 83.401001 2.147903 0.000000 0.000000 0.000000 1.842114 -58.353858 5.335878 -37.989553 7.100158 30.252335 46.592340 -10.608233 -10.671681 -9.676591 -1.954771 -11.646707 0.000000 0.000000 0.000000 1.842114 -58.353858 5.335878 -33.895070 -3.803800 -30.319398 54.860499 4.272548 -7.824917 -22.758124 0.289209 25.730146 0.000000 0.000000 0.000000 1.842114 -58.353858 5.335878 -0.000000 0.000001 0.000001 11.180573 0.095467 -2.658423 8.415503 0.047719 -5.523352 0.000000 0.000000 0.000000 8.440638 0.038453 -5.556613 -3.712721 5.360512 1.555023 0.000000 0.000000 0.000000 8.440638 0.038453 -5.556613 -6.255917 -11.420895 -3.881568 -22.851890 9.623143 -36.709292 0.732729 -41.250904 0.283359 0.000000 0.000000 0.000000 8.440638 0.038453 -5.556613 -5.498247 10.676362 2.494247 -41.196942 -26.687774 30.121568 -154.825430 68.405519 156.443721 0.000000 0.000000 0.000000 
